<svg width="18" height="16" viewBox="0 0 18 16" fill="none" xmlns="http://www.w3.org/2000/svg">
<path d="M1.50001 0.5H16.5C16.721 0.5 16.933 0.587797 17.0893 0.744078C17.2455 0.900358 17.3333 1.11232 17.3333 1.33333V14.6667C17.3333 14.8877 17.2455 15.0996 17.0893 15.2559C16.933 15.4122 16.721 15.5 16.5 15.5H1.50001C1.27899 15.5 1.06703 15.4122 0.910749 15.2559C0.754469 15.0996 0.666672 14.8877 0.666672 14.6667V1.33333C0.666672 1.11232 0.754469 0.900358 0.910749 0.744078C1.06703 0.587797 1.27899 0.5 1.50001 0.5ZM9.05001 7.73583L3.70667 3.19833L2.62751 4.46833L9.06084 9.93083L15.3783 4.46417L14.2883 3.20333L9.05084 7.73583H9.05001Z" fill="#718096"/>
</svg>
