<svg width="16" height="19" viewBox="0 0 16 19" fill="none" xmlns="http://www.w3.org/2000/svg">
<path d="M13.3033 13.47L8 18.7733L2.69667 13.47C1.64779 12.4211 0.933489 11.0847 0.644107 9.62988C0.354725 8.17502 0.503256 6.66703 1.07092 5.29659C1.63858 3.92615 2.59987 2.75481 3.83324 1.9307C5.0666 1.1066 6.51665 0.666733 8 0.666733C9.48336 0.666733 10.9334 1.1066 12.1668 1.9307C13.4001 2.75481 14.3614 3.92615 14.9291 5.29659C15.4968 6.66703 15.6453 8.17502 15.3559 9.62988C15.0665 11.0847 14.3522 12.4211 13.3033 13.47ZM8 9.83333C8.44203 9.83333 8.86595 9.65774 9.17852 9.34518C9.49108 9.03262 9.66667 8.6087 9.66667 8.16667C9.66667 7.72464 9.49108 7.30072 9.17852 6.98816C8.86595 6.6756 8.44203 6.5 8 6.5C7.55798 6.5 7.13405 6.6756 6.82149 6.98816C6.50893 7.30072 6.33334 7.72464 6.33334 8.16667C6.33334 8.6087 6.50893 9.03262 6.82149 9.34518C7.13405 9.65774 7.55798 9.83333 8 9.83333Z" fill="#718096"/>
</svg>
